<?xml version="1.0" encoding="utf-8"?>
<!-- Generator: Adobe Illustrator 24.2.1, SVG Export Plug-In . SVG Version: 6.00 Build 0)  -->
<svg version="1.1" id="Layer_1" xmlns="http://www.w3.org/2000/svg" xmlns:xlink="http://www.w3.org/1999/xlink" x="0px" y="0px"
	 viewBox="0 0 427 121" style="enable-background:new 0 0 427 121;" xml:space="preserve">
<style type="text/css">
	.st0{fill:#4A382E;}
	.st1{fill:none;stroke:#4A382E;stroke-width:3;stroke-miterlimit:10;}
	.st2{fill:#4A382D;}
</style>
<g>
	<path class="st0" d="M99.46,37.8c0.12-0.87,0.19-1.76,0.38-2.62c1.45-6.45,4.98-11.25,11.17-13.89c0.9-0.38,1.87-0.62,2.82-0.86
		c0.39-0.1,0.53-0.26,0.52-0.65c-0.02-0.87-0.01-1.74-0.01-2.66c2.01,0,3.94,0,5.97,0c0,0.89,0.02,1.75-0.01,2.62
		c-0.01,0.41,0.12,0.59,0.55,0.69c7.7,1.93,12.09,7.04,13.93,14.57c0.22,0.9,0.29,1.84,0.46,2.97c-1.18-0.14-2.23-0.17-3.23-0.41
		c-5.98-1.46-10.43-4.88-13.2-10.42c-0.32-0.65-0.72-1.11-1.49-1.1c-0.78,0.01-1.15,0.48-1.48,1.12c-3.24,6.23-8.3,9.87-15.32,10.7
		c-0.25,0.03-0.5,0.02-0.76,0.02C99.7,37.89,99.64,37.86,99.46,37.8z"/>
	<path class="st0" d="M113.21,46.98c0.94,0.75,1.9,1.56,2.91,2.31c0.95,0.7,1.48,0.69,2.44-0.01c1.01-0.74,1.97-1.56,2.96-2.35
		c0.7,0.63,1.42,1.29,2.15,1.94c0.24,0.21,0.5,0.4,0.77,0.58c0.93,0.64,0.94,0.64,0.45,1.63c-1.52,3.06-3.81,5.42-6.6,7.33
		c-0.61,0.42-1.24,0.45-1.86,0.03c-2.96-2.01-5.35-4.52-6.87-7.8c-0.21-0.45-0.13-0.65,0.26-0.94
		C110.97,48.82,112.07,47.9,113.21,46.98z"/>
	<path class="st0" d="M117.34,30.65c1.58,2.37,3.46,4.29,5.64,5.95c0.18,0.14,0.29,0.54,0.23,0.77c-0.35,1.28-0.62,2.6-1.18,3.78
		c-0.96,2.04-2.52,3.65-4.29,5.03c-0.16,0.13-0.56,0.2-0.69,0.1c-2.85-2.22-4.99-4.91-5.59-8.6c-0.1-0.61,0.04-0.99,0.56-1.38
		c1.89-1.4,3.52-3.08,4.87-5.01C117.01,31.1,117.15,30.92,117.34,30.65z"/>
	<path class="st0" d="M102.72,40.73c2-0.69,3.92-1.36,5.87-2.04c0.12,0.45,0.21,1,0.42,1.48c0.59,1.31,1.21,2.61,1.88,3.88
		c0.19,0.37,0.23,0.58-0.04,0.9c-1.2,1.37-2.64,2.41-4.25,3.22c-0.57,0.29-1.28,0.11-1.61-0.49
		C103.78,45.52,103.03,43.2,102.72,40.73C102.72,40.7,102.76,40.65,102.72,40.73z"/>
	<path class="st0" d="M126.04,38.68c1.97,0.69,3.9,1.36,5.95,2.07c-0.13,0.63-0.21,1.39-0.44,2.09c-0.49,1.47-1,2.94-1.61,4.37
		c-0.49,1.16-1.22,1.35-2.31,0.75c-1.44-0.79-2.75-1.74-3.8-3.01c-0.14-0.17-0.26-0.56-0.16-0.69
		C124.85,42.54,125.65,40.67,126.04,38.68z"/>
</g>
<path class="st0" d="M50.3,21.38V41.2c0,2.77,0.89,4.68,2.68,5.71c1.78,1.03,4.39,1.55,7.83,1.55s6.04-0.52,7.83-1.55
	c1.78-1.03,2.68-2.94,2.68-5.71l-0.06-22.14L78.44,19l-0.13,21.87c0,2.6-0.37,4.75-1.12,6.44c-0.75,1.7-1.87,3.05-3.37,4.06
	c-1.5,1.01-3.36,1.7-5.58,2.05c-2.22,0.35-4.79,0.53-7.7,0.53c-2.91,0-5.47-0.18-7.7-0.53c-2.22-0.35-4.09-1.03-5.58-2.05
	c-1.5-1.01-2.62-2.37-3.37-4.06c-0.75-1.7-1.12-3.84-1.12-6.44V21.38c0-0.61-0.01-1.82,0-2.29c0-0.13,7.53-0.09,7.53-0.09
	C50.5,19,50.3,20.83,50.3,21.38z"/>
<g>
	<path class="st0" d="M154.44,53.75L154.48,19h7.62l-0.04,28.67l25.37,0.04v6L154.44,53.75z"/>
	<path class="st0" d="M196.48,51.57V26.86c0-0.35-0.01-2.18-0.01-2.18h6.38c0,0-0.03,1.52-0.03,2.18v24.71
		c0,0.66,0.03,2.18,0.03,2.18h-6.38C196.48,53.75,196.48,51.92,196.48,51.57z"/>
	<path class="st0" d="M224.01,53.84l0.02-24.27l-11.23-0.04l0-4.92l28.8,0.02l0,4.98l-11.23-0.05l-0.02,24.27
		C229.54,53.88,225.93,53.82,224.01,53.84z"/>
	<path class="st0" d="M256.6,29.17c0.26-0.62,0.47-1.11,0.63-1.49c0.15-0.37,0-3.01,0-3.01h4.1l5.14,0c0,0-0.12,2.5,0.07,2.87
		c0.2,0.38,0.41,0.8,0.63,1.29l12.29,24.91l-6.68-0.04l-3.89-7.23h-14.14l-3.35,7.22l-6.69,0.04L256.6,29.17z M266.78,41.59
		l-5.35-11.1l-4.69,11.1H266.78z"/>
	<path class="st0" d="M302.21,53.71h-6.58l-13.13-29l7.13-0.03l9.66,21.6l9.5-21.6l6.96,0.06L302.21,53.71z"/>
	<path class="st0" d="M329.5,53.75h-6.42l-0.01-29.06l6.39-0.01l0.02,12.95c1.5-1.23,3.04-2.48,4.62-3.73
		c1.59-1.25,3.02-2.41,4.29-3.47c1.28-1.06,6.66-5.73,6.66-5.73l7.04,0.04l-12.85,11.58l14.01,17.44h-8.19l-10.44-13.68l-5.15,4.1
		L329.5,53.75z"/>
	<path class="st0" d="M355.95,24.69l7.64-0.02l9.22,12.29l8.56-12.28l7.63-0.01l-13.54,16.98l0.06,12.09h-6.35l-0.05-12.35
		L355.95,24.69z"/>
</g>
<line class="st1" x1="39.82" y1="71.69" x2="386.81" y2="71.69"/>
<g>
	<path class="st2" d="M92.03,88.76c0.79-0.16,1.93-0.25,3.01-0.25c1.67,0,2.75,0.31,3.51,0.99c0.61,0.54,0.95,1.37,0.95,2.3
		c0,1.6-1.01,2.67-2.29,3.1v0.05c0.94,0.32,1.49,1.19,1.78,2.45c0.4,1.69,0.68,2.86,0.94,3.33h-1.62c-0.2-0.34-0.47-1.39-0.81-2.9
		c-0.36-1.67-1.01-2.3-2.43-2.36H93.6v5.26h-1.57V88.76z M93.6,94.29h1.6c1.67,0,2.74-0.92,2.74-2.3c0-1.57-1.13-2.25-2.79-2.27
		c-0.76,0-1.3,0.07-1.55,0.14V94.29z"/>
	<path class="st2" d="M111.6,95.04h-4.72v4.38h5.26v1.31h-6.82V88.6h6.55v1.31h-4.99v3.83h4.72V95.04z"/>
	<path class="st2" d="M117.56,98.82c0.7,0.43,1.73,0.79,2.81,0.79c1.6,0,2.54-0.85,2.54-2.07c0-1.13-0.65-1.78-2.29-2.41
		c-1.98-0.7-3.21-1.73-3.21-3.44c0-1.89,1.57-3.29,3.93-3.29c1.24,0,2.14,0.29,2.68,0.59l-0.43,1.28c-0.4-0.22-1.21-0.58-2.3-0.58
		c-1.66,0-2.29,0.99-2.29,1.82c0,1.13,0.74,1.69,2.41,2.34c2.05,0.79,3.1,1.78,3.1,3.56c0,1.87-1.39,3.49-4.25,3.49
		c-1.17,0-2.45-0.34-3.1-0.77L117.56,98.82z"/>
	<path class="st2" d="M132.55,89.93h-3.69V88.6h8.98v1.33h-3.71v10.8h-1.58V89.93z"/>
	<path class="st2" d="M143.41,96.91l-1.26,3.82h-1.62l4.12-12.14h1.89l4.14,12.14h-1.67l-1.3-3.82H143.41z M147.39,95.69l-1.19-3.49
		c-0.27-0.79-0.45-1.51-0.63-2.21h-0.04c-0.18,0.72-0.38,1.46-0.61,2.2l-1.19,3.51H147.39z"/>
	<path class="st2" d="M157.12,88.6v7.18c0,2.72,1.21,3.87,2.83,3.87c1.8,0,2.95-1.19,2.95-3.87V88.6h1.58v7.08
		c0,3.73-1.96,5.26-4.59,5.26c-2.48,0-4.36-1.42-4.36-5.19V88.6H157.12z"/>
	<path class="st2" d="M170.8,88.76c0.79-0.16,1.93-0.25,3.01-0.25c1.67,0,2.75,0.31,3.51,0.99c0.61,0.54,0.95,1.37,0.95,2.3
		c0,1.6-1.01,2.67-2.29,3.1v0.05c0.94,0.32,1.49,1.19,1.78,2.45c0.4,1.69,0.68,2.86,0.94,3.33h-1.62c-0.2-0.34-0.47-1.39-0.81-2.9
		c-0.36-1.67-1.01-2.3-2.43-2.36h-1.48v5.26h-1.57V88.76z M172.37,94.29h1.6c1.67,0,2.74-0.92,2.74-2.3c0-1.57-1.13-2.25-2.79-2.27
		c-0.76,0-1.3,0.07-1.55,0.14V94.29z"/>
	<path class="st2" d="M186.14,96.91l-1.26,3.82h-1.62l4.12-12.14h1.89l4.14,12.14h-1.67l-1.3-3.82H186.14z M190.12,95.69l-1.19-3.49
		c-0.27-0.79-0.45-1.51-0.63-2.21h-0.04c-0.18,0.72-0.38,1.46-0.61,2.2l-1.19,3.51H190.12z"/>
	<path class="st2" d="M207,100.34c-0.58,0.29-1.73,0.58-3.21,0.58c-3.42,0-6-2.16-6-6.14c0-3.8,2.57-6.37,6.34-6.37
		c1.51,0,2.47,0.32,2.88,0.54l-0.38,1.28c-0.59-0.29-1.44-0.5-2.45-0.5c-2.84,0-4.74,1.82-4.74,5.01c0,2.97,1.71,4.88,4.66,4.88
		c0.95,0,1.93-0.2,2.56-0.5L207,100.34z"/>
	<path class="st2" d="M218.85,95.04h-4.72v4.38h5.26v1.31h-6.82V88.6h6.55v1.31h-4.99v3.83h4.72V95.04z"/>
	<path class="st2" d="M232.43,88.6H234v10.82h5.19v1.31h-6.75V88.6z"/>
	<path class="st2" d="M246.1,88.6v12.14h-1.57V88.6H246.1z"/>
	<path class="st2" d="M252.43,88.76c0.68-0.14,1.76-0.25,2.86-0.25c1.57,0,2.57,0.27,3.33,0.88c0.63,0.47,1.01,1.19,1.01,2.14
		c0,1.17-0.77,2.2-2.05,2.66v0.04c1.15,0.29,2.5,1.24,2.5,3.04c0,1.04-0.41,1.84-1.03,2.43c-0.85,0.77-2.21,1.13-4.2,1.13
		c-1.08,0-1.91-0.07-2.43-0.14V88.76z M254,93.73h1.42c1.66,0,2.63-0.86,2.63-2.03c0-1.42-1.08-1.98-2.66-1.98
		c-0.72,0-1.13,0.05-1.39,0.11V93.73z M254,99.54c0.31,0.05,0.76,0.07,1.31,0.07c1.62,0,3.11-0.59,3.11-2.36
		c0-1.66-1.42-2.34-3.13-2.34H254V99.54z"/>
	<path class="st2" d="M276.16,94.54c0,4.18-2.54,6.39-5.64,6.39c-3.21,0-5.46-2.48-5.46-6.16c0-3.85,2.39-6.37,5.64-6.37
		C274.01,88.4,276.16,90.94,276.16,94.54z M266.74,94.74c0,2.59,1.4,4.92,3.87,4.92c2.48,0,3.89-2.29,3.89-5.04
		c0-2.41-1.26-4.93-3.87-4.93C268.04,89.68,266.74,92.07,266.74,94.74z"/>
	<path class="st2" d="M292.02,95.4c-0.09-1.69-0.2-3.73-0.18-5.24h-0.05c-0.41,1.42-0.92,2.94-1.53,4.61l-2.14,5.89h-1.19
		l-1.96-5.78c-0.58-1.71-1.06-3.28-1.4-4.72h-0.04c-0.04,1.51-0.13,3.55-0.23,5.37l-0.32,5.2h-1.49l0.85-12.14h2l2.07,5.87
		c0.5,1.49,0.92,2.83,1.22,4.09h0.05c0.31-1.22,0.74-2.56,1.28-4.09l2.16-5.87h2l0.76,12.14h-1.53L292.02,95.4z"/>
	<path class="st2" d="M302.56,100.73v-5.15l-3.84-6.99h1.78l1.71,3.35c0.47,0.92,0.83,1.66,1.21,2.5h0.04
		c0.34-0.79,0.76-1.58,1.22-2.5l1.75-3.35h1.78l-4.07,6.97v5.17H302.56z"/>
	<path class="st2" d="M312.75,98.82c0.7,0.43,1.73,0.79,2.81,0.79c1.6,0,2.54-0.85,2.54-2.07c0-1.13-0.65-1.78-2.29-2.41
		c-1.98-0.7-3.21-1.73-3.21-3.44c0-1.89,1.57-3.29,3.93-3.29c1.24,0,2.14,0.29,2.68,0.59l-0.43,1.28c-0.4-0.22-1.21-0.58-2.3-0.58
		c-1.66,0-2.29,0.99-2.29,1.82c0,1.13,0.74,1.69,2.41,2.34c2.05,0.79,3.1,1.78,3.1,3.56c0,1.87-1.39,3.49-4.25,3.49
		c-1.17,0-2.45-0.34-3.1-0.77L312.75,98.82z M315.65,87.89l-1.89-2.05h1.33l1.15,1.26h0.04l1.13-1.26h1.28l-1.84,2.05H315.65z"/>
	<path class="st2" d="M325.44,88.6H327v10.82h5.19v1.31h-6.75V88.6z"/>
</g>
</svg>
