<svg id="Layer_1" data-name="Layer 1" xmlns="http://www.w3.org/2000/svg" viewBox="0 0 476.18 405.62"><defs><style>.cls-1{fill:#4a382e;}</style></defs><path class="cls-1" d="M441.15,551.73c-.5,18.67-4.08,36.32-15.69,51.41-8.32,10.82-18.31,19.51-32.81,20.72-9.28.77-17.87-2-26.14-5.81-11.39-5.21-22.6-10.8-34.05-15.87a104.83,104.83,0,0,0-36-8.4c-9-.58-17.65,1.28-26.32,3.42-16.85,4.17-33.68,8.53-50.69,11.92a59.27,59.27,0,0,1-30.39-1.63c-13.51-4.46-22.48-13.34-26.4-27.16-6.57-23.11-3-44.29,12-63.26q9.41-11.9,19.21-23.46c11.28-13.32,18.67-28.89,26.3-44.37,7.94-16.09,16.59-31.77,28.32-45.52,12.63-14.81,27.71-25.67,47.55-28.06,12.19-1.47,23.86,1.62,35.09,6.08,21.78,8.67,39.45,23.11,54.71,40.53,26.63,30.38,44.84,65.11,52.43,105C439.8,535.32,440.22,543.57,441.15,551.73Z" transform="translate(-59.91 -218.37)"/><path class="cls-1" d="M311.27,285.2c-.1-17.57,7.82-36.8,24.37-52.33C363.17,207,399.3,218.57,414,245.21c13.89,25.1,12.92,50.58-.28,75.76a90,90,0,0,1-19.45,24.6c-24.2,22.16-63.58,11.72-75.8-17.82C314.07,317.05,311.7,305.63,311.27,285.2Z" transform="translate(-59.91 -218.37)"/><path class="cls-1" d="M280.9,292.83c-.16,26.54-7.53,48.5-25.9,65.81-11.7,11-25.38,17.36-41.93,14.19-13.3-2.54-22.9-10.65-29.52-22-13.88-23.91-14.19-49-4.79-74.39,6.91-18.63,18.86-33.23,37.35-41.54,23.94-10.76,46.9-1.7,57.5,22.33A91.38,91.38,0,0,1,280.9,292.83Z" transform="translate(-59.91 -218.37)"/><path class="cls-1" d="M59.91,412.49c.65-17.28,6.32-36.63,20.31-52.82,19.86-22.95,46.82-24.29,68.63-3.17,19.11,18.5,26.5,40.63,19.21,66.95-3.79,13.7-8.29,27-16.4,38.86C137.48,483,116,488.51,93.71,477c-12.07-6.23-20.63-15.82-26.53-27.91C62.13,438.76,59.87,427.77,59.91,412.49Z" transform="translate(-59.91 -218.37)"/><path class="cls-1" d="M425.92,395.38c.17-24.09,7.23-45.48,26-61.56,13.51-11.58,29.22-16.34,46.63-10.52,13.23,4.43,21.73,14.7,28.15,26.58,16.95,31.35,10.64,67.06-16.64,91.8a93.08,93.08,0,0,1-21.93,14.84c-17.4,8.32-35.72,3.44-47.74-11.72-9.77-12.31-13.3-26.85-14.46-42.15C425.76,400.24,425.92,397.8,425.92,395.38Z" transform="translate(-59.91 -218.37)"/></svg>