<?xml version="1.0" encoding="utf-8"?>
<!-- Generator: Adobe Illustrator 24.2.1, SVG Export Plug-In . SVG Version: 6.00 Build 0)  -->
<svg version="1.1" id="Layer_1" xmlns="http://www.w3.org/2000/svg" xmlns:xlink="http://www.w3.org/1999/xlink" x="0px" y="0px"
	 viewBox="0 0 65 100" style="enable-background:new 0 0 65 100;" xml:space="preserve">
<style type="text/css">
	.st0{fill:#996A55;}
</style>
<path class="st0" d="M15.23,16.23c0.7,0.12,1.92,0.32,3.13,0.54c2.34,0.43,4.67,0.87,7.01,1.3c1.78,0.33,3.55,0.67,5.33,0.97
	c0.46,0.08,0.54,0.3,0.46,0.71c-0.67,3.65-1.34,7.29-1.98,10.94c-0.73,4.1-1.44,8.2-2.16,12.3c-0.61,3.46-1.24,6.93-1.84,10.39
	c-0.08,0.45-0.3,0.56-0.71,0.49c-1.83-0.35-3.66-0.69-5.49-1.03c-2.28-0.42-4.56-0.83-6.84-1.26c-1.87-0.35-3.74-0.7-5.6-1.05
	c-0.84-0.16-1.69-0.29-2.52-0.5c-0.93-0.23-1.43-0.88-1.36-1.84c0.07-0.93,0.25-1.85,0.41-2.76c0.34-1.95,0.69-3.89,1.04-5.84
	c0.43-2.41,0.88-4.82,1.31-7.24c0.34-1.89,0.64-3.79,1-5.67c0.35-1.83,0.59-3.69,1.15-5.45C8.51,18.21,11.51,16.21,15.23,16.23z"/>
<path class="st0" d="M41.56,24.67c-0.16,0.93-0.37,2.15-0.59,3.36c-0.43,2.43-0.86,4.87-1.29,7.3c-0.32,1.82-0.66,3.63-0.98,5.45
	c-0.44,2.49-0.88,4.98-1.32,7.47c-0.34,1.89-0.69,3.78-1.04,5.67c-0.26,1.44-0.51,2.88-0.77,4.32c-0.07,0.38,0.03,0.63,0.34,0.88
	c3.85,3.13,7.73,6.24,11.52,9.45c1.75,1.48,2.68,3.49,3.12,5.75c0.31,1.6,0.07,3.14-0.14,4.71c-0.27,1.98-0.55,3.96-0.83,5.93
	c-0.35,2.5-0.71,5.01-1.07,7.51c-0.19,1.32-0.4,2.63-0.53,3.96c-0.23,2.23-2.03,3.74-4.2,3.46c-2.02-0.26-3.37-2.29-3.04-4.43
	c0.4-2.56,0.72-5.12,1.09-7.68c0.34-2.43,0.69-4.86,1.04-7.29c0.18-1.28,0.35-2.56,0.54-3.84c0.16-1.14-0.21-2.06-1.1-2.78
	c-2.29-1.87-4.57-3.73-6.86-5.6c-2.54-2.07-5.08-4.13-7.61-6.21c-0.15-0.12-0.27-0.43-0.23-0.62c0.56-3.2,1.16-6.4,1.73-9.6
	c0.34-1.93,0.66-3.86,1-5.79c0.42-2.34,0.86-4.67,1.28-7.01c0.35-1.95,0.67-3.9,1.01-5.84c0.32-1.8,0.65-3.59,0.97-5.39
	c0.26-1.42,0.49-2.85,0.79-4.26c0.4-1.86,2.11-3.1,3.89-2.87C40.22,20.91,41.56,22.43,41.56,24.67z"/>
<path class="st0" d="M53.52,9.23c0.16,4.86-3.95,9.18-9.03,9.1c-4.84-0.08-8.82-4.1-8.81-9.08c0.01-5.26,4.09-9.01,8.7-9.13
	C49.52-0.02,53.66,4.28,53.52,9.23z"/>
<path class="st0" d="M26.89,66.05c1.24,1.01,2.38,1.93,3.51,2.85c0.81,0.66,1.61,1.34,2.44,1.98c0.39,0.3,0.54,0.59,0.45,1.11
	c-0.42,2.45-0.74,4.93-1.23,7.37c-0.21,1.06-0.63,2.13-1.17,3.07c-2.95,5.19-5.96,10.34-8.95,15.51c-0.73,1.26-1.78,1.98-3.24,1.98
	c-1.4,0-2.5-0.64-3.17-1.88c-0.65-1.2-0.66-2.47,0.02-3.65c3.01-5.24,6.07-10.45,9.05-15.71c0.4-0.71,0.49-1.62,0.64-2.46
	c0.38-2.15,0.71-4.31,1.06-6.47C26.49,68.55,26.68,67.37,26.89,66.05z"/>
<path class="st0" d="M58.96,75.32c0,8.02,0,16.04,0,24.05c0,0.74,0,0.74-0.75,0.74c-0.8,0-1.6-0.01-2.4,0.01
	c-0.38,0.01-0.51-0.13-0.49-0.5c0.02-0.36,0-0.72,0-1.09c0-15.75,0-31.5,0-47.25c0-0.87,0-0.87,0.86-0.87
	c0.72,0,1.45,0.02,2.17-0.01c0.48-0.02,0.62,0.16,0.62,0.63c-0.02,2.09-0.01,4.19-0.01,6.28C58.96,63.33,58.96,69.33,58.96,75.32z"
	/>
<path class="st0" d="M24.04,59.6c-0.16,0.89-0.33,1.94-0.52,2.98c-0.09,0.5-0.17,1.02-0.32,1.5c-0.27,0.86-1.08,1.38-1.95,1.22
	c-2.15-0.38-4.3-0.8-6.45-1.2c-1.83-0.34-3.67-0.67-5.5-1.01c-2.49-0.46-4.98-0.91-7.46-1.39c-0.84-0.16-1.47-1.1-1.32-1.94
	c0.24-1.44,0.5-2.89,0.79-4.32c0.21-1.03,1.05-1.58,2.08-1.39c3.42,0.63,6.85,1.26,10.27,1.9c2.97,0.55,5.95,1.1,8.92,1.66
	C23.49,57.77,24.05,58.5,24.04,59.6z"/>
<path class="st0" d="M44.27,31.05c0.62,1.57,1.23,3.14,1.85,4.71c0.4,1.03,0.81,2.05,1.19,3.08c0.14,0.38,0.4,0.39,0.72,0.39
	c1.9-0.01,3.81,0,5.71,0c2.48,0,4.95,0,7.43,0c2,0,3.62,1.63,3.62,3.64c0,2.1-1.53,3.72-3.58,3.72c-4.8,0.01-9.6,0.02-14.4,0
	c-1.87-0.01-3.42-0.82-4.67-2.18c-0.17-0.18-0.25-0.55-0.21-0.8c0.32-1.99,0.69-3.97,1.04-5.95c0.39-2.2,0.79-4.4,1.18-6.61
	C44.2,31.05,44.24,31.05,44.27,31.05z"/>
<path class="st0" d="M55.32,33.55c0-0.5,0.01-0.99,0-1.49c-0.01-0.36,0.1-0.52,0.49-0.51c0.88,0.02,1.75,0.02,2.63,0.01
	c0.39-0.01,0.54,0.14,0.54,0.54c-0.02,0.97-0.02,1.94,0,2.91c0.01,0.34-0.09,0.49-0.45,0.48c-0.93-0.01-1.87-0.01-2.8,0
	c-0.34,0.01-0.42-0.14-0.41-0.45C55.34,34.54,55.32,34.04,55.32,33.55C55.32,33.55,55.32,33.55,55.32,33.55z"/>
</svg>
